<svg width="94" height="94" viewBox="0 0 94 94" fill="none" xmlns="http://www.w3.org/2000/svg">
<path d="M68.875 93.875H25.125C11.34 93.875 0.125 82.66 0.125 68.875V25.125C0.125 11.34 11.34 0.125 25.125 0.125H68.875C82.66 0.125 93.875 11.34 93.875 25.125V68.875C93.875 82.66 82.66 93.875 68.875 93.875ZM25.125 6.375C14.785 6.375 6.375 14.7852 6.375 25.125V68.875C6.375 79.215 14.7852 87.625 25.125 87.625H68.875C79.215 87.625 87.625 79.2148 87.625 68.875V25.125C87.625 14.785 79.2148 6.375 68.875 6.375H25.125Z" fill="black"/>
<path d="M68.875 3.25H25.125C13.043 3.25 3.25 13.043 3.25 25.125V68.875C3.25 80.957 13.043 90.75 25.125 90.75H68.875C80.957 90.75 90.75 80.957 90.75 68.875V25.125C90.75 13.043 80.957 3.25 68.875 3.25ZM68.875 47.008C68.875 48.7346 67.4766 50.133 65.75 50.133H50.125V65.758C50.125 67.4846 48.7266 68.883 47 68.883C45.2734 68.883 43.875 67.4846 43.875 65.758V50.133H28.25C26.5234 50.133 25.125 48.7346 25.125 47.008C25.125 45.2814 26.5234 43.883 28.25 43.883H43.875V28.258C43.875 26.5314 45.2734 25.133 47 25.133C48.7266 25.133 50.125 26.5314 50.125 28.258V43.883H65.75C67.4766 43.883 68.875 45.2814 68.875 47.008Z" fill="black"/>
</svg>
